<?xml version="1.0" encoding="utf-8"?>
<!-- Generator: Adobe Illustrator 27.5.0, SVG Export Plug-In . SVG Version: 6.00 Build 0)  -->
<svg version="1.1" xmlns="http://www.w3.org/2000/svg" xmlns:xlink="http://www.w3.org/1999/xlink" x="0px" y="0px"
	 viewBox="0 0 500 500" style="enable-background:new 0 0 500 500;" xml:space="preserve">
<g id="BACKGROUND">
	<g>
		<g>
			<rect style="fill:#C5C5C7;" width="500" height="500"/>
		</g>
	</g>
</g>
<g id="OBJECTS">
	<g>
		<g>
			<g>
				<g>
					<g>
						<g>
							<g>
								<path style="fill:#C5C5C7;" d="M230.288,269.46c3.217,0,3.223-5,0-5C227.071,264.46,227.066,269.46,230.288,269.46
									L230.288,269.46z"/>
							</g>
						</g>
						<g>
							<circle style="opacity:0.3;fill:#1F1E21;" cx="235.52" cy="267.793" r="200.335"/>
							<circle style="fill:#FBB901;" cx="250" cy="250" r="200.335"/>
							<path style="fill:#FFDA8F;" d="M250.005,81.76c-48.49,0-92.25,20.61-122.97,53.54c30.05-27.98,70.33-45.12,114.55-45.12
								c92.77,0,168.24,75.47,168.24,168.24c0,44.28-17.2,84.63-45.27,114.7c33.01-30.74,53.69-74.56,53.69-123.12
								C418.245,157.23,342.765,81.76,250.005,81.76z"/>
							<path style="opacity:0.3;fill:#1F1E21;" d="M250.005,430.58c-99.58,0-180.59-81.01-180.59-180.58
								c0-47.65,18.55-91.05,48.81-123.36c-35.2,32.98-57.22,79.86-57.22,131.78c0,99.57,81,180.58,180.58,180.58
								c51.92,0,98.8-22.03,131.77-57.23C341.055,412.03,297.655,430.58,250.005,430.58z"/>
							<g>
								<g>
									<path style="fill:#1F1E21;" d="M250,430.583c-99.574,0-180.583-81.009-180.583-180.583S150.426,69.417,250,69.417
										S430.583,150.426,430.583,250S349.574,430.583,250,430.583z M250,81.76c-92.768,0-168.24,75.472-168.24,168.24
										c0,92.768,75.472,168.24,168.24,168.24c92.768,0,168.24-75.472,168.24-168.24C418.24,157.232,342.768,81.76,250,81.76z"/>
								</g>
							</g>
							<path style="fill:#FFDA8F;" d="M450.333,250c0,57.055-23.85,108.526-62.119,145.016
								c34.127-35.917,55.063-84.496,55.063-137.949c0-110.645-89.698-200.343-200.343-200.343
								c-53.452,0-102.031,20.936-137.949,55.063c36.49-38.27,87.961-62.119,145.016-62.119
								C360.645,49.667,450.333,139.355,450.333,250z"/>
						</g>
					</g>
				</g>
			</g>
			<g>
				<g>
					<path style="fill:#FFDA8F;" d="M309.97,190.891l-0.655,0.047c0.158-1.743,0.276-3.309,0.364-4.659
						c0.198-3.055-2.212-5.644-5.273-5.644H181.011c-3.061,0-5.471,2.589-5.273,5.644c1.377,21.279,10.245,95.449,66.959,95.449
						c20.241,0,34.365-9.461,44.255-22.572l22.698,1.644l0.32,0.012c19.277,0,34.961-15.683,34.961-34.96
						C344.931,206.575,329.247,190.891,309.97,190.891z M310.123,251.943l-17.591-1.275c9.473-16.575,13.8-36.436,15.761-50.775
						l1.83-0.133c14.316,0.085,25.938,11.756,25.938,26.092C336.061,240.187,324.439,251.859,310.123,251.943z"/>
					<path style="fill:#FFDA8F;" d="M228.057,178.646c0,0,20.201-24.762,13.162-36.951c-8.414-14.57-10.54-20.748-5.678-32.288
						c0,0-14.885,17.147-11.379,36.251C226.066,156.033,234.458,155.1,228.057,178.646z"/>
					<path style="fill:#FFDA8F;" d="M247.138,166.063c0,0,20.201-24.762,13.162-36.951c-8.414-14.571-10.54-20.749-5.678-32.288
						c0,0-14.885,17.148-11.379,36.251C245.146,143.45,253.539,142.517,247.138,166.063z"/>
					<path style="fill:#FFDA8F;" d="M296.524,283.291H188.888c-2.449,0-4.435,1.986-4.435,4.435c0,2.449,1.986,4.435,4.435,4.435
						h107.637c2.449,0,4.435-1.986,4.435-4.435C300.959,285.277,298.973,283.291,296.524,283.291z"/>
				</g>
				<g>
					
						<text transform="matrix(1 0 0 1 162.4238 386.2285)" style="fill:#FFDA8F; font-family:'BebasNeueBold'; font-size:111.883px;">CAFE</text>
				</g>
			</g>
			<g>
				<g>
					<path style="fill:#1F1E21;" d="M313.97,186.891l-0.655,0.047c0.158-1.743,0.276-3.309,0.364-4.659
						c0.198-3.055-2.212-5.644-5.273-5.644H185.011c-3.061,0-5.471,2.589-5.273,5.644c1.377,21.279,10.245,95.449,66.959,95.449
						c20.241,0,34.365-9.461,44.255-22.572l22.698,1.644l0.32,0.012c19.277,0,34.961-15.683,34.961-34.96
						C348.931,202.575,333.247,186.891,313.97,186.891z M314.123,247.943l-17.591-1.275c9.473-16.575,13.8-36.436,15.761-50.775
						l1.83-0.133c14.316,0.085,25.938,11.756,25.938,26.092C340.061,236.187,328.439,247.859,314.123,247.943z"/>
					<path style="fill:#1F1E21;" d="M232.057,174.646c0,0,20.201-24.762,13.162-36.951c-8.414-14.57-10.54-20.748-5.678-32.288
						c0,0-14.885,17.147-11.379,36.251C230.066,152.033,238.458,151.1,232.057,174.646z"/>
					<path style="fill:#1F1E21;" d="M251.138,162.063c0,0,20.201-24.762,13.162-36.951c-8.414-14.571-10.54-20.749-5.678-32.288
						c0,0-14.885,17.148-11.379,36.251C249.146,139.45,257.539,138.517,251.138,162.063z"/>
					<path style="fill:#1F1E21;" d="M300.524,279.291H192.888c-2.449,0-4.435,1.986-4.435,4.435c0,2.449,1.986,4.435,4.435,4.435
						h107.637c2.449,0,4.435-1.986,4.435-4.435C304.959,281.277,302.973,279.291,300.524,279.291z"/>
				</g>
				<g>
					
						<text transform="matrix(1 0 0 1 166.4238 382.2285)" style="fill:#1F1E21; font-family:'BebasNeueBold'; font-size:111.883px;">CAFE</text>
				</g>
			</g>
		</g>
	</g>
</g>
</svg>
