<?xml version="1.0" encoding="utf-8"?>
<!-- Generator: Adobe Illustrator 27.5.0, SVG Export Plug-In . SVG Version: 6.00 Build 0)  -->
<svg version="1.1" xmlns="http://www.w3.org/2000/svg" xmlns:xlink="http://www.w3.org/1999/xlink" x="0px" y="0px"
	 viewBox="0 0 500 500" style="enable-background:new 0 0 500 500;" xml:space="preserve">
<g id="BACKGROUND">
	<rect style="fill:#FDFDFC;" width="500" height="500"/>
</g>
<g id="OBJECTS">
	<g>
		<g>
			<g>
				<polygon style="fill:#5F3617;" points="270.816,194.025 196.164,194.025 50.028,194.025 50.028,432.564 196.164,432.564 
					270.816,432.564 416.953,432.564 416.953,194.025 				"/>
				<rect x="64.643" y="194.025" style="fill:#DCAE6D;" width="119.619" height="238.539"/>
				<g>
					<rect x="79.388" y="205.192" style="fill:#3A210C;" width="40.924" height="54.24"/>
					<g style="opacity:0.09;">
						<polygon style="fill:#DCAE6D;" points="120.311,214.109 120.311,206.511 79.388,224.976 79.388,232.574 						"/>
						<polygon style="fill:#DCAE6D;" points="120.311,227.178 120.311,219.884 79.388,238.349 79.388,245.643 						"/>
						<polygon style="fill:#DCAE6D;" points="120.311,239.648 120.311,232.961 79.388,251.426 79.388,258.113 						"/>
					</g>
				</g>
				<g>
					<rect x="128.757" y="205.192" style="fill:#3A210C;" width="40.924" height="54.24"/>
					<g style="opacity:0.09;">
						<polygon style="fill:#DCAE6D;" points="169.681,214.109 169.681,206.511 128.757,224.976 128.757,232.574 						"/>
						<polygon style="fill:#DCAE6D;" points="169.681,227.178 169.681,219.884 128.757,238.349 128.757,245.643 						"/>
						<polygon style="fill:#DCAE6D;" points="169.681,239.648 169.681,232.961 128.757,251.426 128.757,258.113 						"/>
					</g>
				</g>
				<g>
					<rect x="79.388" y="269.463" style="fill:#3A210C;" width="40.924" height="54.24"/>
					<g style="opacity:0.09;">
						<polygon style="fill:#DCAE6D;" points="120.311,278.381 120.311,270.783 79.388,289.248 79.388,296.846 						"/>
						<polygon style="fill:#DCAE6D;" points="120.311,291.45 120.311,284.155 79.388,302.621 79.388,309.915 						"/>
						<polygon style="fill:#DCAE6D;" points="120.311,303.919 120.311,297.233 79.388,315.698 79.388,322.384 						"/>
					</g>
				</g>
				<g>
					<rect x="128.757" y="269.463" style="fill:#3A210C;" width="40.924" height="54.24"/>
					<g style="opacity:0.09;">
						<polygon style="fill:#DCAE6D;" points="169.681,278.381 169.681,270.783 128.757,289.248 128.757,296.846 						"/>
						<polygon style="fill:#DCAE6D;" points="169.681,291.45 169.681,284.155 128.757,302.621 128.757,309.915 						"/>
						<polygon style="fill:#DCAE6D;" points="169.681,303.919 169.681,297.233 128.757,315.698 128.757,322.384 						"/>
					</g>
				</g>
				<g>
					<rect x="79.388" y="333.735" style="fill:#3A210C;" width="40.924" height="54.24"/>
					<g style="opacity:0.09;">
						<polygon style="fill:#DCAE6D;" points="120.311,342.652 120.311,335.054 79.388,353.519 79.388,361.117 						"/>
						<polygon style="fill:#DCAE6D;" points="120.311,355.721 120.311,348.427 79.388,366.892 79.388,374.186 						"/>
						<polygon style="fill:#DCAE6D;" points="120.311,368.19 120.311,361.504 79.388,379.969 79.388,386.655 						"/>
					</g>
				</g>
				<g>
					<rect x="128.757" y="333.735" style="fill:#3A210C;" width="40.924" height="54.24"/>
					<g style="opacity:0.09;">
						<polygon style="fill:#DCAE6D;" points="169.681,342.652 169.681,335.054 128.757,353.519 128.757,361.117 						"/>
						<polygon style="fill:#DCAE6D;" points="169.681,355.721 169.681,348.427 128.757,366.892 128.757,374.186 						"/>
						<polygon style="fill:#DCAE6D;" points="169.681,368.19 169.681,361.504 128.757,379.969 128.757,386.655 						"/>
					</g>
				</g>
				<rect x="79.388" y="395.874" style="fill:#E0BB87;" width="90.618" height="36.69"/>
				<rect x="86.679" y="400.034" style="fill:#E0B374;" width="76.035" height="28.369"/>
				<g>
					<path style="fill:#BC712C;" d="M179.306,312.965V301.51c0-2.568-2.082-4.65-4.65-4.65h0c-2.568,0-4.65,2.082-4.65,4.65v11.456
						c0,2.568,2.082,4.65,4.65,4.65h0C177.224,317.616,179.306,315.534,179.306,312.965z"/>
				</g>
				<g>
					<path style="fill:#BC712C;" d="M149.219,306.453v0.82c0,1.124,0.887,2.049,2.01,2.096l22.796,0.952
						c1.192,0.05,2.185-0.903,2.185-2.096v-2.725c0-1.193-0.993-2.146-2.185-2.096l-22.796,0.952
						C150.105,304.404,149.219,305.329,149.219,306.453z"/>
				</g>
				<polygon style="fill:#DCAE6D;" points="392.469,381.504 204.99,381.504 204.99,194.025 214.72,194.025 298.17,204.283 
					382.739,194.025 392.469,194.025 				"/>
				<rect x="214.72" y="194.025" style="fill:#3A210C;" width="168.019" height="177.073"/>
				<g>
					<path style="fill:#F3EAE8;" d="M299.734,217.976h-3.048v-7.079c0-0.821,0.665-1.486,1.486-1.486h0.077
						c0.82,0,1.486,0.665,1.486,1.486V217.976z"/>
					<polyline style="fill:none;stroke:#F3EAE8;stroke-miterlimit:10;" points="265.035,244.931 298.21,213.693 330.608,244.931 
											"/>
					<g>
						<path style="fill:#BC712C;" d="M235.462,319.127v-71.12c0-3.011,2.441-5.453,5.453-5.453h115.63
							c3.011,0,5.453,2.441,5.453,5.453v71.12c0,3.011-2.441,5.453-5.453,5.453h-115.63
							C237.903,324.58,235.462,322.138,235.462,319.127z"/>
						<path style="fill:#F3EAE8;" d="M354.31,317.915H243.149c-0.564,0-1.021-0.457-1.021-1.021v-66.652
							c0-0.564,0.457-1.021,1.021-1.021H354.31c0.564,0,1.021,0.457,1.021,1.021v66.652
							C355.331,317.457,354.874,317.915,354.31,317.915z"/>
						
							<text transform="matrix(1 0 0 1 250.7912 308.5843)" style="fill:#DCAE6D; font-family:'Poppins-Bold'; font-size:33.2987px;">OPEN</text>
						<text transform="matrix(1 0 0 1 265.8639 278.7386)" style="fill:#DCAE6D; font-family:'Pacifico'; font-size:23.6267px;">We’re</text>
					</g>
				</g>
				<path style="fill:#286627;" d="M272.888,411.577c0,0-4.535-14.161,9.862-23.954c0,0-17.876,1.535-18.484,15.405
					c-0.608,13.87,10.249,13.002,10.249,13.002L272.888,411.577z"/>
				<path style="fill:#378C28;" d="M271.816,412.027c0,0,1.054-14.832,18.061-18.571c0,0-17.166-5.221-22.887,7.429
					c-5.721,12.65,4.68,15.881,4.68,15.881L271.816,412.027z"/>
				<path style="fill:#286627;" d="M265.725,413.83c0,0-8.861-11.941,1.607-25.855c0,0-16.425,7.22-12.526,20.545
					c3.899,13.325,13.896,9.001,13.896,9.001L265.725,413.83z"/>
				<path style="fill:#378C28;" d="M222.674,412.027c0,0-1.054-14.832-18.061-18.571c0,0,17.166-5.221,22.887,7.429
					c5.721,12.65-4.68,15.881-4.68,15.881L222.674,412.027z"/>
				<path style="fill:#286627;" d="M226.484,410.781c0,0,8.861-11.941-1.607-25.855c0,0,16.425,7.22,12.526,20.545
					c-3.899,13.325-13.896,9.001-13.896,9.001L226.484,410.781z"/>
				<path style="fill:#286627;" d="M235.612,412.315c0,0,11.218-9.76,3.981-25.598c0,0,14.492,10.578,7.823,22.755
					c-6.669,12.177-15.504,5.808-15.504,5.808L235.612,412.315z"/>
				<path style="fill:#378C28;" d="M253.738,412.01c0,0-5.763-13.707,7.717-24.729c0,0-17.672,3.102-17.058,16.971
					c0.615,13.87,11.353,12.051,11.353,12.051L253.738,412.01z"/>
				<path style="fill:#DCAE6D;" d="M281.054,432.642h-67.186l-2.753-25.107c-0.173-1.578,1.063-2.957,2.651-2.957h67.39
					c1.588,0,2.824,1.379,2.651,2.957L281.054,432.642z"/>
				<path style="fill:#E0BB87;" d="M272.345,432.637h-49.768l-2.039-18.598c-0.128-1.169,0.787-2.191,1.964-2.191h49.919
					c1.176,0,2.092,1.022,1.964,2.191L272.345,432.637z"/>
				<path style="fill:#286627;" d="M362.278,411.577c0,0-4.535-14.161,9.862-23.954c0,0-17.876,1.535-18.484,15.405
					c-0.608,13.87,10.249,13.002,10.249,13.002L362.278,411.577z"/>
				<path style="fill:#378C28;" d="M361.206,412.027c0,0,1.054-14.832,18.061-18.571c0,0-17.166-5.221-22.887,7.429
					c-5.721,12.65,4.68,15.881,4.68,15.881L361.206,412.027z"/>
				<path style="fill:#286627;" d="M355.115,413.83c0,0-8.861-11.941,1.607-25.855c0,0-16.425,7.22-12.526,20.545
					c3.899,13.325,13.896,9.001,13.896,9.001L355.115,413.83z"/>
				<path style="fill:#378C28;" d="M312.063,412.027c0,0-1.054-14.832-18.061-18.571c0,0,17.166-5.221,22.887,7.429
					c5.721,12.65-4.68,15.881-4.68,15.881L312.063,412.027z"/>
				<path style="fill:#286627;" d="M315.874,410.781c0,0,8.861-11.941-1.607-25.855c0,0,16.425,7.22,12.526,20.545
					c-3.899,13.325-13.896,9.001-13.896,9.001L315.874,410.781z"/>
				<path style="fill:#286627;" d="M325.002,412.315c0,0,11.218-9.76,3.981-25.598c0,0,14.492,10.578,7.823,22.755
					c-6.669,12.177-15.504,5.808-15.504,5.808L325.002,412.315z"/>
				<path style="fill:#378C28;" d="M343.127,412.01c0,0-5.763-13.707,7.717-24.729c0,0-17.672,3.102-17.058,16.971
					c0.614,13.87,11.353,12.051,11.353,12.051L343.127,412.01z"/>
				<path style="fill:#DCAE6D;" d="M370.444,432.642h-67.186l-2.753-25.107c-0.173-1.578,1.063-2.957,2.651-2.957h67.391
					c1.588,0,2.824,1.379,2.651,2.957L370.444,432.642z"/>
				<path style="fill:#E0BB87;" d="M361.735,432.637h-49.768l-2.039-18.598c-0.128-1.169,0.787-2.191,1.964-2.191h49.919
					c1.176,0,2.092,1.022,1.964,2.191L361.735,432.637z"/>
			</g>
			<rect x="50.028" y="194.025" style="fill:#291708;" width="366.925" height="4.873"/>
			<g>
				<g>
					<path style="fill:#5F3617;" d="M119.366,95.581H54.294c-6.864,0-12.428-5.564-12.428-12.428V64.439h89.929v18.713
						C131.795,90.016,126.23,95.581,119.366,95.581z"/>
					<rect x="41.866" y="64.439" style="fill:#543014;" width="89.929" height="8.118"/>
				</g>
				<rect x="41.404" y="148.906" style="fill:#542E11;" width="384.173" height="45.212"/>
				<rect x="41.404" y="148.906" style="fill:#47270E;" width="384.173" height="33.041"/>
				<rect x="32.786" y="98.166" style="fill:#865A37;" width="403.416" height="76.799"/>
				
					<rect x="207.379" y="-52.8" transform="matrix(-1.836970e-16 1 -1 -1.836970e-16 371.0593 -97.9284)" style="opacity:0.2;fill:#3A210C;" width="54.23" height="378.73"/>
				
					<rect x="210.456" y="-49.722" transform="matrix(-1.836970e-16 1 -1 -1.836970e-16 371.0595 -97.9286)" style="fill:#96653E;" width="48.075" height="372.576"/>
				<rect x="26.281" y="92.072" style="fill:#3A210C;" width="414.419" height="6.094"/>
				<g>
					
						<text transform="matrix(1 0 0 1 81.7858 150.9573)" style="fill:#DCAE6D; font-family:'Poppins-SemiBold'; font-size:40.0078px; letter-spacing:4;">COFFEE SHOP</text>
					
						<text transform="matrix(1 0 0 1 81.7858 150.9573)" style="fill:none;stroke:#FCEDD7; font-family:'Poppins-SemiBold'; font-size:40.0078px; letter-spacing:4;">COFFEE SHOP</text>
				</g>
				<g>
					<g>
						<path style="fill:none;stroke:#FCEDD7;" d="M408.517,136.565c0,2.1-1.702,3.801-3.802,3.801c-2.099,0-3.801-1.702-3.801-3.801
							s1.702-3.801,3.801-3.801C406.815,132.764,408.517,134.466,408.517,136.565z"/>
						<path style="fill:#DCAE6D;stroke:#FCEDD7;" d="M408.517,136.565c0,2.1-1.702,3.801-3.802,3.801
							c-2.099,0-3.801-1.702-3.801-3.801s1.702-3.801,3.801-3.801C406.815,132.764,408.517,134.466,408.517,136.565z"/>
					</g>
					<g>
						<path style="fill:none;stroke:#FCEDD7;" d="M68.073,136.565c0,2.1-1.702,3.801-3.802,3.801c-2.099,0-3.801-1.702-3.801-3.801
							s1.702-3.801,3.801-3.801C66.371,132.764,68.073,134.466,68.073,136.565z"/>
						<path style="fill:#DCAE6D;stroke:#FCEDD7;" d="M68.073,136.565c0,2.1-1.702,3.801-3.802,3.801
							c-2.099,0-3.801-1.702-3.801-3.801s1.702-3.801,3.801-3.801C66.371,132.764,68.073,134.466,68.073,136.565z"/>
					</g>
				</g>
				<path style="fill:#286627;" d="M65.299,55.547c-4.921-4.478-12.08,1.71-12.08,1.71s-9.36-1.392-11.117,5.026
					c-1.757,6.417,15.375,9.637,15.987,11.745C57.476,71.919,70.22,60.025,65.299,55.547z"/>
				<path style="fill:#286627;" d="M95.953,57.136c-2.234-4.453-8.9-2.054-8.9-2.054s-6.165-3.49-9.119,0.521
					c-2.954,4.011,8.15,10.868,8.011,12.507C86.083,66.471,98.186,61.589,95.953,57.136z"/>
				<path style="fill:#286627;" d="M133.829,60.219c-2.234-4.453-8.9-2.055-8.9-2.055s-6.165-3.49-9.119,0.521
					c-2.954,4.011,8.15,10.869,8.011,12.507C123.959,69.554,136.062,64.671,133.829,60.219z"/>
				<path style="fill:#378C28;" d="M116.03,58.286c-2.234-4.453-8.9-2.055-8.9-2.055s-6.165-3.49-9.119,0.521
					c-2.954,4.011,8.15,10.869,8.011,12.507C106.16,67.621,118.263,62.738,116.03,58.286z"/>
				<path style="fill:#378C28;" d="M61.152,60.514c-3.506-2.978-8.218,0.962-8.843,1.512c-0.048,0.042-0.098,0.059-0.162,0.053
					c-0.829-0.073-6.96-0.459-8.022,4.017c-1.055,4.444,9.813,6.447,11.843,7.948c0.127,0.094,0.299,0.038,0.346-0.113
					C57.061,71.52,64.634,63.471,61.152,60.514z"/>
				<path style="fill:#378C28;" d="M81.434,67.739c3.295,3.908,9.373-0.082,9.373-0.082s6.988,2.005,8.974-2.705
					c1.986-4.71-10.736-8.892-10.989-10.56C89.045,56.06,78.139,63.831,81.434,67.739z"/>
				<g>
					<path style="fill:none;stroke:#BC712C;stroke-miterlimit:10;" d="M154.271,150.974c-10.316-4.698-19.481-15.715-17.478-26.969
						c2.004-11.255,10.48-31,2.741-37.413s-13.131-24.144-19.158-29.105c-9.771-8.043-13.469,4.898-13.469,4.898"/>
					<path style="fill:#378C28;" d="M156.07,145.902c-3.645-2.826-8.253,1.841-8.253,1.841s-6.543-0.45-7.407,4.08
						s11.149,5.818,11.688,7.242C151.559,157.642,159.714,148.728,156.07,145.902z"/>
					<path style="fill:#286627;" d="M147.832,121.776c-4.288-1.697-7.412,4.07-7.412,4.07s-6.409,1.393-5.975,5.984
						c0.434,4.591,12.33,2.478,13.244,3.695C146.775,134.307,152.12,123.472,147.832,121.776z"/>
					<path style="fill:#286627;" d="M146.226,101.116c-4.288-1.697-7.412,4.07-7.412,4.07s-6.409,1.392-5.975,5.984
						c0.434,4.591,12.33,2.478,13.244,3.695C145.168,113.648,150.514,102.813,146.226,101.116z"/>
					<path style="fill:#286627;" d="M133.776,77.731c-2.113,4.099,3.316,7.779,3.316,7.779s0.751,6.516,5.363,6.538
						c4.611,0.023,3.687-12.024,4.988-12.813C146.142,80.024,135.889,73.632,133.776,77.731z"/>
					<path style="fill:#378C28;" d="M141.732,126.482c-1.526-4.352-7.93-2.935-7.93-2.935s-5.25-3.931-8.435-0.596
						c-3.185,3.335,6.203,10.94,5.882,12.428C131.57,133.891,143.258,130.834,141.732,126.482z"/>
					<path style="fill:#378C28;" d="M147.429,89.071c-1.526-4.352-7.93-2.935-7.93-2.935s-5.25-3.931-8.435-0.596
						c-3.185,3.335,6.203,10.94,5.882,12.428C137.267,96.48,148.955,93.423,147.429,89.071z"/>
					<path style="fill:#378C28;" d="M133.744,63.589c-1.399-3.989-6.897-3.131-7.803-2.96c-0.081,0.015-0.165-0.003-0.232-0.05
						c-0.756-0.529-5.41-3.578-8.33-0.521c-2.897,3.034,4.609,9.6,5.748,11.882c0.093,0.187,0.32,0.236,0.482,0.104
						C125.587,70.435,135.132,67.547,133.744,63.589z"/>
				</g>
				<g>
					<path style="fill:none;stroke:#BC712C;stroke-miterlimit:10;" d="M22.6,150.974c10.316-4.698,19.482-15.715,17.478-26.969
						c-2.004-11.255-10.48-31-2.741-37.413s11.789-26.526,19.158-29.105c7.368-2.579,8.474,8.114,8.474,8.114"/>
					<path style="fill:#378C28;" d="M20.801,145.902c3.645-2.826,8.253,1.841,8.253,1.841s6.543-0.45,7.407,4.08
						c0.863,4.53-11.149,5.818-11.688,7.242C25.312,157.642,17.156,148.728,20.801,145.902z"/>
					<path style="fill:#286627;" d="M29.039,121.776c4.288-1.697,7.412,4.07,7.412,4.07s6.409,1.393,5.975,5.984
						c-0.434,4.591-12.33,2.478-13.244,3.695C30.096,134.307,24.751,123.472,29.039,121.776z"/>
					<path style="fill:#286627;" d="M30.645,101.116c4.288-1.697,7.412,4.07,7.412,4.07s6.409,1.392,5.975,5.984
						c-0.434,4.591-12.33,2.478-13.244,3.695C31.703,113.648,26.357,102.813,30.645,101.116z"/>
					<path style="fill:#286627;" d="M42.625,78.954c2.113,4.099-3.316,7.779-3.316,7.779s-0.751,6.516-5.362,6.538
						c-4.612,0.023-3.687-12.024-4.988-12.813C30.259,81.247,40.511,74.855,42.625,78.954z"/>
					<path style="fill:#378C28;" d="M34.6,130.932c1.526-4.352,7.93-2.935,7.93-2.935s5.25-3.931,8.435-0.596
						c3.185,3.335-6.203,10.94-5.882,12.428C44.762,138.341,33.073,135.283,34.6,130.932z"/>
					<path style="fill:#378C28;" d="M31.887,87.696c1.526-4.352,7.93-2.935,7.93-2.935s5.25-3.931,8.435-0.596
						c3.185,3.335-6.203,10.94-5.882,12.428C42.049,95.104,30.361,92.047,31.887,87.696z"/>
					<path style="fill:#378C28;" d="M58.218,55.216c1.927-3.178,6.742-0.996,6.742-0.996s4.794-2.227,6.751,0.932
						c1.957,3.159-6.71,7.596-6.704,8.822C65,62.748,56.291,58.394,58.218,55.216z"/>
				</g>
				<path style="fill:none;stroke:#BC712C;stroke-miterlimit:10;" d="M61.635,155.117c9.764-5.758,17.718-17.68,14.539-28.661
					c-3.178-10.981-13.688-29.723-6.667-36.916c4.596-4.709,7.001-15.089,10.094-22.635"/>
				<path style="fill:#378C28;" d="M68.074,132.322c3.327-3.194,8.401,0.962,8.401,0.962s6.459-1.137,7.795,3.277
					c1.336,4.414-10.474,6.961-10.86,8.433C73.796,143.521,64.747,135.516,68.074,132.322z"/>
				<path style="fill:#286627;" d="M54.354,152.494c1.481-3.682,6.932-2.215,6.932-2.215s4.667-3.176,7.275-0.185
					c2.609,2.991-5.758,9.165-5.54,10.456C62.803,159.259,52.872,156.176,54.354,152.494z"/>
				<path style="fill:#286627;" d="M67.05,110.66c1.642-4.31,8.006-2.723,8.006-2.723s5.353-3.79,8.448-0.371
					c3.095,3.419-6.492,10.771-6.211,12.267C77.011,118.337,65.408,114.969,67.05,110.66z"/>
				<path style="fill:#286627;" d="M82.342,94.006c-4.578,0.557-6.141-5.813-6.141-5.813s-5.848-2.969-4.267-7.301
					c1.582-4.332,12.555,0.723,13.748-0.224C84.49,81.614,86.92,93.449,82.342,94.006z"/>
				<path style="fill:#378C28;" d="M58.75,110.271c1.059-4.488,7.577-3.754,7.577-3.754s4.807-4.462,8.325-1.481
					c3.519,2.981-5.016,11.532-4.54,12.978C69.636,116.568,57.691,114.759,58.75,110.271z"/>
				<path style="fill:#378C28;" d="M60.799,82.524c3.174-3.346,8.437,0.568,8.437,0.568s6.399-1.438,7.94,2.909
					c1.541,4.347-10.138,7.443-10.454,8.931C67.038,93.444,57.625,85.87,60.799,82.524z"/>
				<path style="fill:#286627;" d="M119.106,63.575c-2.22-5.854-10.484-4.184-11.452-3.967c-0.064,0.014-0.117,0.004-0.171-0.032
					c-0.822-0.557-7.901-5.134-12.109-0.499c-4.181,4.605,7.622,14.193,8.844,17.186c0.063,0.154,0.255,0.191,0.37,0.07
					C106.819,73.995,121.312,69.391,119.106,63.575z"/>
				<path style="fill:#286627;" d="M59.694,64.741c2.42,5.828,10.739,3.826,11.591,3.604c0.05-0.013,0.088-0.007,0.132,0.021
					c0.742,0.473,8.043,4.937,12.138,0.136c4.066-4.767-8.237-14.086-9.399-16.968c-0.049-0.122-0.215-0.148-0.299-0.047
					C71.865,53.871,57.292,58.954,59.694,64.741z"/>
				<path style="fill:#378C28;" d="M73.417,64.029c1.721-3.516,6.443-2.492,7.832-2.102c0.253,0.071,0.513,0.046,0.748-0.071
					c1.29-0.645,5.735-2.54,8.087,0.589c2.335,3.107-4.555,8.176-6.693,10.6c-0.358,0.406-0.978,0.465-1.405,0.134
					C79.43,71.201,71.709,67.52,73.417,64.029z"/>
			</g>
		</g>
		<g>
			<rect x="392.967" y="400.034" style="fill:#DCAE6D;" width="9.759" height="32.529"/>
			<rect x="448.009" y="400.034" style="fill:#DCAE6D;" width="9.759" height="32.529"/>
			<rect x="392.967" y="400.034" style="fill:#865A37;" width="9.759" height="26.352"/>
			<rect x="448.009" y="400.034" style="fill:#865A37;" width="9.759" height="26.352"/>
			
				<rect x="388.087" y="313.339" transform="matrix(-1 -1.224647e-16 1.224647e-16 -1 851.1533 737.0245)" style="fill:#865A37;" width="74.978" height="110.346"/>
			
				<rect x="395.308" y="321.452" transform="matrix(-1 -1.224647e-16 1.224647e-16 -1 851.1534 733.4323)" style="fill:#3A210C;" width="60.538" height="90.529"/>
			<g>
				<path style="fill:#DCAE6D;" d="M417.8,332.128c-0.431,0-0.786,0.323-0.846,0.749c-0.055,0.39-0.084,0.788-0.084,1.193
					c0,3.354,1.87,6.272,4.624,7.768h8.422c2.754-1.496,4.623-4.414,4.623-7.768c0-0.405-0.03-0.803-0.084-1.193
					c-0.06-0.426-0.415-0.749-0.846-0.749H417.8z"/>
				<path style="fill:#DCAE6D;" d="M434.934,333.032c-1.661,0-3.008,1.347-3.008,3.008s1.347,3.008,3.008,3.008
					s3.008-1.347,3.008-3.008S436.595,333.032,434.934,333.032z M434.934,337.338c-0.717,0-1.298-0.581-1.298-1.298
					c0-0.717,0.581-1.298,1.298-1.298c0.717,0,1.298,0.581,1.298,1.298C436.232,336.757,435.65,337.338,434.934,337.338z"/>
				<path style="fill:#DCAE6D;" d="M432.842,342.623h-14.276c-0.438,0-0.793-0.355-0.793-0.793v-0.041
					c0-0.438,0.355-0.793,0.793-0.793h14.276c0.438,0,0.793,0.355,0.793,0.793v0.041
					C433.635,342.268,433.28,342.623,432.842,342.623z"/>
			</g>
			<rect x="406.599" y="350.307" style="fill:none;stroke:#DCAE6D;stroke-miterlimit:10;" width="37.956" height="50.426"/>
			<g>
				<line style="fill:none;stroke:#DCAE6D;stroke-miterlimit:10;" x1="414.502" y1="357.648" x2="436.651" y2="357.648"/>
				<line style="fill:none;stroke:#DCAE6D;stroke-miterlimit:10;" x1="414.502" y1="364.797" x2="436.651" y2="364.797"/>
				<line style="fill:none;stroke:#DCAE6D;stroke-miterlimit:10;" x1="414.502" y1="371.946" x2="436.651" y2="371.946"/>
				<line style="fill:none;stroke:#DCAE6D;stroke-miterlimit:10;" x1="414.502" y1="379.095" x2="436.651" y2="379.095"/>
				<line style="fill:none;stroke:#DCAE6D;stroke-miterlimit:10;" x1="414.502" y1="386.244" x2="436.651" y2="386.244"/>
				<line style="fill:none;stroke:#DCAE6D;stroke-miterlimit:10;" x1="414.502" y1="393.393" x2="436.651" y2="393.393"/>
			</g>
		</g>
		<rect y="432.565" style="fill:#3A210C;" width="500" height="16.125"/>
	</g>
</g>
</svg>
